<svg xmlns="http://www.w3.org/2000/svg" width="126" height="131" viewBox="0 0 126 131" fill="none"><g filter="url(#filter0_d_92_1531)"><path d="M92.5 48.0725C92.5 34.5015 81.4985 23.5 67.9275 23.5C54.3565 23.5 43.355 34.5015 43.355 48.0725V50.9275C43.355 64.4985 54.3565 75.5 67.9275 75.5C81.4985 75.5 92.5 64.4985 92.5 50.9275V48.0725Z" stroke="black" stroke-width="2"></path></g><path d="M77.1429 49.9997C77.1429 49.6491 77.011 49.3139 76.7766 49.0664C76.5422 48.8189 76.2248 48.6797 75.8927 48.6797H62.1807L67.2634 43.6769C67.5198 43.4423 67.6736 43.1071 67.692 42.7488C67.7091 42.3917 67.5882 42.0411 67.3562 41.7794C67.1242 41.5177 66.8019 41.3669 66.4625 41.3605C66.1231 41.3553 65.7959 41.4958 65.5566 41.7498L58.1519 49.0329C57.8992 49.283 57.7551 49.6323 57.7551 49.9984C57.7551 50.3645 57.8992 50.7138 58.1519 50.9639L65.5566 58.2497C66.0621 58.7472 66.8532 58.7189 67.3245 58.1852C67.7957 57.6528 67.7677 56.8162 67.2634 56.3187L62.1807 51.3198H75.8927C76.2248 51.3198 76.5422 51.1806 76.7766 50.9331C77.011 50.6856 77.1429 50.3504 77.1429 49.9998L77.1429 49.9997Z" fill="black"></path><defs><filter id="filter0_d_92_1531" x="-1.64502" y="0.5" width="127.145" height="130" filterUnits="userSpaceOnUse" color-interpolation-filters="sRGB"><feGaussianBlur stdDeviation="19"></feGaussianBlur></filter></defs></svg>