<svg xmlns="http://www.w3.org/2000/svg" width="29" height="29" viewBox="0 0 29 29" fill="none"><path d="M23.5598 13.9189H5.44016C2.56001 13.9189 0.225281 16.3268 0.225281 19.2936V23.6122C0.225281 26.5791 2.56001 28.9863 5.44016 28.9863H23.5598C26.4394 28.9863 28.7747 26.5791 28.7747 23.6122V19.2936C28.7747 16.3268 26.4394 13.9189 23.5598 13.9189ZM9.24698 17.281H7.56243V25.905H5.93493V17.281H4.25154V15.8141H9.24698V17.281ZM14.0055 25.905H12.5619V25.0894C12.2936 25.391 12.0171 25.6213 11.7284 25.7766C11.4397 25.9386 11.1609 26.0141 10.8896 26.0141C10.5543 26.0141 10.3052 25.9044 10.1347 25.6813C9.96701 25.4588 9.88145 25.1289 9.88145 24.6833V18.46H11.325V24.1712C11.325 24.3475 11.357 24.474 11.4146 24.5526C11.4769 24.6336 11.5759 24.6707 11.7115 24.6707C11.8163 24.6707 11.9513 24.6192 12.1137 24.5148C12.2773 24.4093 12.4263 24.2773 12.5619 24.1142V18.4594H14.0055V25.905ZM19.2466 24.3679C19.2466 24.8938 19.1331 25.2981 18.9066 25.5799C18.6814 25.8618 18.3519 26.0003 17.9252 26.0003C17.6412 26.0003 17.3886 25.9476 17.1691 25.8384C16.9485 25.7305 16.7407 25.5643 16.5515 25.334V25.9044H15.0905V15.8141H16.5515V19.064C16.7471 18.8391 16.9537 18.6645 17.1697 18.5476C17.3903 18.4283 17.6121 18.3707 17.8368 18.3707C18.2937 18.3707 18.6418 18.5278 18.8828 18.8451C19.1249 19.1623 19.2454 19.6271 19.2454 20.2364V24.3679H19.2466ZM24.2542 22.3618H21.4917V23.7646C21.4917 24.1556 21.5382 24.4279 21.6325 24.5796C21.7292 24.7319 21.8916 24.8063 22.1226 24.8063C22.3625 24.8063 22.5284 24.7421 22.625 24.6138C22.7181 24.4842 22.7682 24.2024 22.7682 23.7646V23.4257H24.2542V23.8078C24.2542 24.5706 24.0744 25.1457 23.7094 25.5337C23.3503 25.9182 22.8089 26.1089 22.0895 26.1089C21.4416 26.1089 20.9311 25.9056 20.5603 25.4966C20.1907 25.09 20.0021 24.5256 20.0021 23.8084V20.4643C20.0021 19.8208 20.2082 19.2913 20.6174 18.8852C21.0254 18.4792 21.551 18.2765 22.1977 18.2765C22.8596 18.2765 23.3677 18.4642 23.7222 18.8409C24.0767 19.2181 24.2542 19.7578 24.2542 20.4637V22.3618Z" fill="#2F4B26"></path><path d="M22.1366 19.5771C21.9061 19.5771 21.7419 19.6437 21.6418 19.7829C21.5394 19.9136 21.4916 20.1373 21.4916 20.4497V21.2024H22.7681V20.4497C22.7681 20.1373 22.7169 19.913 22.6156 19.7829C22.5184 19.6443 22.356 19.5771 22.1366 19.5771Z" fill="#2F4B26"></path><path d="M17.1557 19.5527C17.0533 19.5527 16.9497 19.5761 16.8501 19.6247C16.7489 19.6721 16.6499 19.7506 16.5521 19.8526V24.4902C16.668 24.6102 16.7826 24.7025 16.8944 24.7553C17.0056 24.8063 17.1208 24.8351 17.2436 24.8351C17.4212 24.8351 17.5504 24.7823 17.6336 24.6756C17.7157 24.57 17.7576 24.4015 17.7576 24.1634V20.3186C17.7576 20.0655 17.7087 19.876 17.6063 19.7458C17.5003 19.6175 17.3502 19.5527 17.1557 19.5527Z" fill="#2F4B26"></path><path d="M7.81271 11.3325H9.64278V6.72062L11.7738 0.214844H9.91345L8.78071 4.65878H8.66546L7.47627 0.214844H5.63281L7.81271 6.92812V11.3325Z" fill="#2F4B26"></path><path d="M14.2535 11.5398C14.9927 11.5398 15.5725 11.3401 15.995 10.9407C16.4147 10.5395 16.6249 9.99192 16.6249 9.29025V5.05382C16.6249 4.42951 16.4101 3.91554 15.9822 3.51913C15.5515 3.12391 14.9997 2.9248 14.3268 2.9248C13.5876 2.9248 12.9991 3.11312 12.5613 3.48914C12.1248 3.86517 11.9053 4.36953 11.9053 5.00704V9.25786C11.9053 9.95534 12.119 10.5071 12.5456 10.9209C12.9723 11.3329 13.5427 11.5398 14.2535 11.5398ZM13.5794 4.94467C13.5794 4.76655 13.6417 4.62262 13.7633 4.50987C13.8897 4.39952 14.0497 4.34614 14.2488 4.34614C14.4636 4.34614 14.6376 4.39952 14.7703 4.50987C14.9025 4.62262 14.9683 4.76655 14.9683 4.94467V9.41319C14.9683 9.63209 14.9036 9.80601 14.7727 9.93135C14.6429 10.0573 14.4682 10.1191 14.2488 10.1191C14.034 10.1191 13.8681 10.0591 13.7517 9.93315C13.637 9.8102 13.5788 9.63748 13.5788 9.41259V4.94467H13.5794Z" fill="#2F4B26"></path><path d="M19.0795 11.4524C19.3851 11.4524 19.6988 11.3624 20.0219 11.1897C20.3484 11.0146 20.661 10.7585 20.9584 10.4244V11.333H22.5842V3.13184H20.9584V9.35694C20.8071 9.53506 20.6389 9.68139 20.4584 9.79774C20.2745 9.91288 20.1232 9.97046 20.0038 9.97046C19.8513 9.97046 19.739 9.92728 19.6732 9.83792C19.6063 9.75216 19.5684 9.61182 19.5684 9.41931V3.13184H17.945V9.98605C17.945 10.4748 18.0405 10.8401 18.2291 11.0823C18.4212 11.3282 18.7017 11.4524 19.0795 11.4524Z" fill="#2F4B26"></path></svg>