<svg xmlns="http://www.w3.org/2000/svg" width="28" height="28" viewBox="0 0 28 28" fill="none"><path d="M15.4429 12.8185V12.7764C15.4342 12.7906 15.4249 12.8048 15.4156 12.8185H15.4429Z" fill="#1B1C1B"></path><path d="M25.9383 0.551758H2.90691C1.80455 0.551758 0.910522 1.42446 0.910522 2.50002V25.801C0.910522 26.876 1.80455 27.7487 2.90691 27.7487H25.9383C27.0423 27.7487 27.9363 26.8755 27.9363 25.801V2.50002C27.9363 1.42391 27.0418 0.551758 25.9383 0.551758ZM9.1022 23.3191H5.02031V11.0384H9.1022V23.3191ZM7.06153 9.36078H7.03419C5.66499 9.36078 4.77917 8.41754 4.77917 7.23918C4.77917 6.03457 5.69233 5.11758 7.08832 5.11758C8.48486 5.11758 9.34389 6.03457 9.37123 7.23918C9.37123 8.41754 8.48431 9.36078 7.06153 9.36078ZM23.8216 23.3191H19.7397V16.7476C19.7397 15.0973 19.1492 13.9709 17.6723 13.9709C16.5448 13.9709 15.8733 14.7304 15.5775 15.4642C15.4697 15.7261 15.4435 16.0925 15.4435 16.4599V23.3185H11.3616C11.3616 23.3185 11.4152 12.1889 11.3616 11.0378H15.4435V12.7761C15.9859 11.9395 16.956 10.748 19.1229 10.748C21.8083 10.748 23.8222 12.5038 23.8222 16.2762V23.3191H23.8216Z" fill="#2F4B26"></path></svg>