<svg xmlns="http://www.w3.org/2000/svg" width="21" height="27" viewBox="0 0 21 27" fill="none"><path d="M2.298 14.0006H3.76128C4.37608 14.0006 5.03764 14.3029 5.00986 15.0622C4.98504 15.7457 4.57321 16.1575 3.76128 16.1575H2.298V14.0006ZM0.760254 12.7286V20.0755H2.298V17.4074H4.00369C5.38517 17.4074 6.35923 16.4305 6.35923 15.106C6.35923 13.723 5.31216 12.7285 4.00369 12.7285L0.760254 12.7286Z" fill="white"></path><path d="M8.97879 14.0005H10.1164C11.6074 14.0005 12.1609 14.9687 12.1667 16.3225C12.1682 17.7039 11.552 18.824 10.2522 18.824H8.97883L8.97879 14.0005ZM7.4834 12.7286V20.0755H10.5604C12.6676 20.0755 13.7687 18.2208 13.7366 16.3239C13.7001 14.2575 12.2821 12.7285 10.3296 12.7285L7.4834 12.7286Z" fill="white"></path><path d="M15.0059 12.7287V20.0741H16.5451V16.9767H19.7753V15.6814H16.5451V14.0107H20.2397V12.7285L15.0059 12.7287Z" fill="white"></path><path fill-rule="evenodd" clip-rule="evenodd" d="M6.51705 7.45147e-05L0.764648 6.62429V11.6567H2.17533V7.59555H8.57449V2.86263H7.16089V6.18345H3.01641L7.16089 1.4124H18.8231V11.6566H20.2352V0L6.51705 7.45147e-05Z" fill="white"></path><path fill-rule="evenodd" clip-rule="evenodd" d="M0.764648 21.1545V26.308L20.2354 26.327V18.6616H18.8233V24.912L2.17544 24.8974V21.1544L0.764648 21.1545Z" fill="white"></path></svg>