<svg xmlns="http://www.w3.org/2000/svg" width="126" height="131" viewBox="0 0 126 131" fill="none"><g filter="url(#filter0_d_140_119)"><path d="M43.355 48.0725V50.9275C43.355 64.4985 54.3565 75.5 67.9275 75.5C81.4985 75.5 92.5 64.4985 92.5 50.9275V48.0725C92.5 34.5015 81.4985 23.5 67.9275 23.5C54.3565 23.5 43.355 34.5015 43.355 48.0725Z" stroke="black" stroke-width="2"></path></g><path d="M77.1427 49.9997C77.1427 49.6491 77.0108 49.3139 76.7764 49.0664C76.542 48.8189 76.2245 48.6797 75.8924 48.6797H62.1804L67.2632 43.6769C67.5196 43.4423 67.6734 43.1071 67.6917 42.7488C67.7088 42.3917 67.5879 42.0411 67.356 41.7794C67.124 41.5177 66.8017 41.3669 66.4623 41.3605C66.1229 41.3553 65.7956 41.4958 65.5564 41.7498L58.1517 49.0329C57.8989 49.283 57.7549 49.6323 57.7549 49.9984C57.7549 50.3645 57.899 50.7138 58.1517 50.9639L65.5564 58.2497C66.0618 58.7472 66.8529 58.7189 67.3242 58.1852C67.7955 57.6528 67.7674 56.8162 67.2632 56.3187L62.1804 51.3198H75.8924C76.2245 51.3198 76.542 51.1806 76.7764 50.9331C77.0108 50.6856 77.1427 50.3504 77.1427 49.9998L77.1427 49.9997Z" fill="black"></path><defs><filter id="filter0_d_140_119" x="-1.64453" y="0.5" width="127.145" height="130" filterUnits="userSpaceOnUse" color-interpolation-filters="sRGB"><feGaussianBlur stdDeviation="19"></feGaussianBlur></filter></defs></svg>