<svg xmlns="http://www.w3.org/2000/svg" xmlns:xlink="http://www.w3.org/1999/xlink" id="Capa_1" x="0px" y="0px" viewBox="0 0 54 54" style="enable-background:new 0 0 54 54;" xml:space="preserve"><g>	<path d="M27,0C12.112,0,0,12.112,0,27s12.112,27,27,27s27-12.112,27-27S41.888,0,27,0z M27,52C13.215,52,2,40.785,2,27  S13.215,2,27,2s25,11.215,25,25S40.785,52,27,52z"></path>	<path d="M29.293,17.707L37.586,26H13c-0.552,0-1,0.447-1,1s0.448,1,1,1h24.586l-8.293,8.293l1.414,1.414L41.414,27L30.707,16.293  L29.293,17.707z"></path></g><g></g><g></g><g></g><g></g><g></g><g></g><g></g><g></g><g></g><g></g><g></g><g></g><g></g><g></g><g></g></svg>