<svg xmlns="http://www.w3.org/2000/svg" width="26" height="17" viewBox="0 0 26 17" fill="none"><path d="M19.1495 15.9788C22.4181 15.7281 25 13.0383 25 9.76573C25 6.32811 22.1518 3.53187 18.6513 3.53187C15.1507 3.53187 12.3026 6.32852 12.3026 9.76573C12.3026 12.4477 10.0805 14.6295 7.34914 14.6295C4.6178 14.6295 2.39573 12.4477 2.39573 9.76573C2.39573 7.32905 5.64989 4.1479 7.34914 2.74915C8.2881 3.52189 9.70118 4.83916 10.7781 6.27448C10.9885 5.81849 11.2379 5.38369 11.5236 4.97467C9.89253 2.95741 7.91726 1.43396 7.77713 1.32672L7.34914 1L6.92115 1.32672C6.67901 1.51128 1 5.88832 1 9.76573C1 13.2033 3.84818 16 7.34872 16C10.8493 16 13.6974 13.2033 13.6974 9.76573C13.6974 7.0838 15.9195 4.90193 18.6509 4.90193C21.3822 4.90193 23.6043 7.0838 23.6043 9.76573C23.6043 12.2826 21.6472 14.3589 19.1491 14.605" fill="#81AC37"></path><path d="M19.1495 15.9788C22.4181 15.7281 25 13.0383 25 9.76573C25 6.32811 22.1518 3.53187 18.6513 3.53187C15.1507 3.53187 12.3026 6.32852 12.3026 9.76573C12.3026 12.4477 10.0805 14.6295 7.34914 14.6295C4.6178 14.6295 2.39573 12.4477 2.39573 9.76573C2.39573 7.32905 5.64989 4.1479 7.34914 2.74915C8.2881 3.52189 9.70118 4.83916 10.7781 6.27448C10.9885 5.81849 11.2379 5.38369 11.5236 4.97467C9.89253 2.95741 7.91726 1.43396 7.77713 1.32672L7.34914 1L6.92115 1.32672C6.67901 1.51128 1 5.88832 1 9.76573C1 13.2033 3.84818 16 7.34872 16C10.8493 16 13.6974 13.2033 13.6974 9.76573C13.6974 7.0838 15.9195 4.90193 18.6509 4.90193C21.3822 4.90193 23.6043 7.0838 23.6043 9.76573C23.6043 12.2826 21.6472 14.3589 19.1491 14.605" stroke="#81AC37"></path></svg>