<svg width="48" height="48" viewBox="0 0 48 48" fill="none" xmlns="http://www.w3.org/2000/svg">
<g clip-path="url(#clip0_1_67)">
<path d="M24 48C17.6342 48 11.5296 45.4706 7.0296 40.9704C2.5296 36.4702 0 30.3653 0 24C0 17.6347 2.52936 11.5296 7.0296 7.0296C11.5298 2.5296 17.6347 0 24 0C30.3653 0 36.4704 2.52936 40.9704 7.0296C45.4704 11.5298 48 17.6347 48 24C48 30.3653 45.4706 36.4704 40.9704 40.9704C36.4702 45.4704 30.3653 48 24 48ZM24 3C18.431 3 13.0896 5.21251 9.14976 9.14976C5.21227 13.0891 3 18.431 3 24C3 29.569 5.21251 34.9104 9.14976 38.8502C13.0891 42.7877 18.431 45 24 45C29.569 45 34.9104 42.7875 38.8502 38.8502C42.7877 34.9109 45 29.569 45 24C45 18.431 42.7875 13.0896 38.8502 9.14976C34.9109 5.21227 29.569 3 24 3Z" fill="white"/>
<path d="M24 31.5002C23.6006 31.502 23.2181 31.3464 22.935 31.0652L12.435 20.5652L14.55 18.4502L24.0002 27.8851L33.4351 18.4502L35.55 20.5652L25.05 31.0652C24.7707 31.3427 24.3938 31.4983 24 31.5002H24Z" fill="white"/>
</g>
<defs>
<clipPath id="clip0_1_67">
<rect width="48" height="48" fill="white"/>
</clipPath>
</defs>
</svg>
