<svg width="239" height="157" viewBox="0 0 239 157" fill="none" xmlns="http://www.w3.org/2000/svg">
<path d="M179.202 153.788C210.934 151.281 236 124.383 236 91.6573C236 57.2811 208.349 29.3187 174.365 29.3187C140.38 29.3187 112.729 57.2852 112.729 91.6573C112.729 118.477 91.1564 140.295 64.6396 140.295C38.1228 140.295 16.5502 118.477 16.5502 91.6573C16.5502 67.2905 48.1426 35.479 64.6396 21.4915C73.7553 29.2189 87.474 42.3916 97.9294 56.7448C99.972 52.1849 102.393 47.8369 105.167 43.7467C89.3316 23.5741 70.155 8.33963 68.7947 7.26719L64.6396 4L60.4845 7.26719C58.1337 9.11279 3 52.8832 3 91.6573C3 126.033 30.6511 154 64.6355 154C98.6199 154 126.271 126.033 126.271 91.6573C126.271 64.838 147.844 43.0193 174.36 43.0193C200.877 43.0193 222.45 64.838 222.45 91.6573C222.45 116.826 203.45 137.589 179.198 140.05" fill="#81AC37"/>
<path d="M179.202 153.788C210.934 151.281 236 124.383 236 91.6573C236 57.2811 208.349 29.3187 174.365 29.3187C140.38 29.3187 112.729 57.2852 112.729 91.6573C112.729 118.477 91.1564 140.295 64.6396 140.295C38.1228 140.295 16.5502 118.477 16.5502 91.6573C16.5502 67.2905 48.1426 35.479 64.6396 21.4915C73.7553 29.2189 87.474 42.3916 97.9294 56.7448C99.972 52.1849 102.393 47.8369 105.167 43.7467C89.3316 23.5741 70.155 8.33963 68.7947 7.26719L64.6396 4L60.4845 7.26719C58.1337 9.11279 3 52.8832 3 91.6573C3 126.033 30.6511 154 64.6355 154C98.6199 154 126.271 126.033 126.271 91.6573C126.271 64.838 147.844 43.0193 174.36 43.0193C200.877 43.0193 222.45 64.838 222.45 91.6573C222.45 116.826 203.45 137.589 179.198 140.05" stroke="#81AC37" stroke-width="6"/>
</svg>
